<svg id="Layer_1" enable-background="new 0 0 512.003 512.003" height="512" viewBox="0 0 512.003 512.003" width="512" xmlns="http://www.w3.org/2000/svg"><g><g><path d="m209.467 381.036v30.597c0 11.701-5.607 22.566-14.816 28.709l-22.243 14.838h167.204l-22.243-14.838c-9.209-6.143-14.816-17.008-14.816-28.709v-30.597c-30.61 0-62.477 0-93.086 0z" fill="#bed8fb"/><path d="m209.467 381.036v30.598c0 11.701-5.607 22.566-14.816 28.709l-22.244 14.838h53.968l.469-.313c9.209-6.143 14.816-17.008 14.816-28.709v-21.183c0-5.2 4.215-9.415 9.415-9.415h51.476v-14.525z" fill="#9dc6fb"/><path d="m355.177 454.107h-198.335c-5.523 0-9.999 4.477-9.999 10v11.197c0 5.523 4.477 10 9.999 10h198.335c5.522 0 9.999-4.477 9.999-10v-11.197c0-5.523-4.476-10-9.999-10z" fill="#dfebfa"/><path d="m202.261 475.303v-11.197c0-5.523 4.477-10 9.999-10h-55.419c-5.523 0-9.999 4.477-9.999 10v11.197c0 5.523 4.477 10 9.999 10h55.419c-5.522 0-9.999-4.477-9.999-10z" fill="#bed8fb"/><g><g><path d="m475.692 26.722h-439.365c-15.891 0-28.82 12.928-28.82 28.82v297.995c0 15.891 12.928 28.82 28.82 28.82h439.364c15.891 0 28.82-12.928 28.82-28.82v-297.995c0-15.891-12.928-28.82-28.819-28.82z" fill="#695d67"/></g></g><path d="m40.844 353.537v-297.995c0-15.891 12.928-28.82 28.819-28.82h-33.336c-15.891 0-28.82 12.928-28.82 28.82v297.995c0 15.891 12.928 28.82 28.82 28.82h33.336c-15.891-.001-28.819-12.929-28.819-28.82z" fill="#554e56"/><g><path d="m38.704 93.006v2 252.007c0 2.291 1.856 4.147 4.147 4.147h426.318c2.29 0 4.147-1.856 4.147-4.147 0-6.718 0-180.788 0-254.007z" fill="#dfebfa"/></g><path d="m68.706 347.013v-252.006-2h-30.002v2 252.007c0 2.291 1.856 4.147 4.147 4.147h30.002c-2.291-.001-4.147-1.857-4.147-4.148z" fill="#bed8fb"/><path d="m469.169 57.918h-386.43v37.088h390.577c0-17.359 0-29.451 0-32.942-.001-2.29-1.857-4.146-4.147-4.146z" fill="#80b4fb"/><path d="m83.739 57.918h-40.889c-2.29 0-4.147 1.856-4.147 4.147v32.942h45.035v-37.089z" fill="#ff656f"/><path d="m72.851 57.918h-30.001c-2.29 0-4.147 1.856-4.147 4.147v32.942h30.001v-32.942c.001-2.29 1.857-4.147 4.147-4.147z" fill="#ff4756"/><path d="m173.09 261.886h-61.311c-3.978 0-7.203 3.225-7.203 7.203v44.586h75.716v-44.586c.001-3.978-3.224-7.203-7.202-7.203z" fill="#ff656f"/><path d="m248.807 222.692h-61.311c-3.978 0-7.203 3.225-7.203 7.203v83.779h75.717v-83.779c-.001-3.979-3.225-7.203-7.203-7.203z" fill="#ffe181"/><path d="m324.524 183.498h-61.311c-3.978 0-7.203 3.225-7.203 7.203v122.974h75.717v-122.974c-.001-3.978-3.226-7.203-7.203-7.203z" fill="#93d3a2"/><path d="m400.24 131.709h-61.311c-3.978 0-7.203 3.225-7.203 7.203v174.762h75.717v-174.762c0-3.978-3.225-7.203-7.203-7.203z" fill="#80b4fb"/><path d="m149.637 261.886h-37.858c-3.978 0-7.203 3.225-7.203 7.203v44.586h37.858v-44.586c.001-3.978 3.225-7.203 7.203-7.203z" fill="#ff4756"/><path d="m225.354 222.692h-37.858c-3.979 0-7.204 3.225-7.204 7.203v83.779h37.858v-83.779c.001-3.979 3.226-7.203 7.204-7.203z" fill="#fec458"/><path d="m301.071 183.498h-37.858c-3.978 0-7.203 3.225-7.203 7.203v122.973h37.858v-122.973c0-3.978 3.225-7.203 7.203-7.203z" fill="#6ec17d"/><path d="m376.787 131.709h-37.858c-3.978 0-7.203 3.225-7.203 7.203v174.762h37.858v-174.762c.001-3.978 3.226-7.203 7.203-7.203z" fill="#5490f9"/></g><g><path d="m475.684 19.211h-439.365c-20.026 0-36.319 16.293-36.319 36.32v297.995c0 20.027 16.293 36.32 36.319 36.32h165.64v21.777c0 9.137-4.398 17.747-11.479 22.47l-18.744 12.503h-14.903c-9.649 0-17.499 7.85-17.499 17.5v11.197c0 9.649 7.85 17.499 17.499 17.499h81.667c4.143 0 7.5-3.358 7.5-7.5s-3.357-7.5-7.5-7.5h-81.667c-1.378 0-2.499-1.121-2.499-2.499v-11.197c0-1.378 1.121-2.5 2.499-2.5h17.175 163.985 17.175c1.378 0 2.499 1.121 2.499 2.5v11.197c0 1.378-1.121 2.499-2.499 2.499h-81.668c-4.143 0-7.5 3.358-7.5 7.5s3.357 7.5 7.5 7.5h81.668c9.649 0 17.499-7.85 17.499-17.499v-11.197c0-9.649-7.85-17.5-17.499-17.5h-14.903l-18.745-12.503c-7.079-4.723-11.478-13.333-11.478-22.47v-21.777h165.64c20.026 0 36.319-16.293 36.319-36.32v-297.995c.002-20.027-16.291-36.32-36.317-36.32zm-162.487 427.36.037.025h-114.466l.037-.025c11.367-7.583 18.154-20.648 18.154-34.948v-21.777h78.085v21.777c0 14.3 6.786 27.365 18.153 34.948zm183.806-93.045c0 11.756-9.563 21.32-21.319 21.32-11.445 0-427.458 0-439.364 0-11.756 0-21.319-9.564-21.319-21.32v-297.995c0-11.756 9.563-21.32 21.319-21.32h439.364c11.756 0 21.319 9.564 21.319 21.32z"/><path d="m469.16 50.407c-17.983 0-407.056 0-426.318 0-6.422 0-11.646 5.225-11.646 11.646v284.949c0 6.422 5.225 11.646 11.646 11.646h426.318c6.422 0 11.646-5.225 11.646-11.646 0-12.676 0-260.121 0-284.949.001-6.421-5.224-11.646-11.646-11.646zm-422.965 15h29.035v22.088h-29.035zm419.612 278.242h-419.612v-241.153h419.611v241.153zm0-256.153h-374.577v-22.089h374.576v22.089z"/><path d="m94.294 321.163h323.415c4.143 0 7.5-3.358 7.5-7.5s-3.357-7.5-7.5-7.5h-2.773v-57.746c0-4.142-3.357-7.5-7.5-7.5s-7.5 3.358-7.5 7.5v57.746h-60.718c0-7.645 0-162.02 0-166.965h60.718v74.22c0 4.142 3.357 7.5 7.5 7.5s7.5-3.358 7.5-7.5v-74.517c0-8.107-6.597-14.703-14.704-14.703h-61.311c-8.107 0-14.703 6.596-14.703 14.703v37.086h-61.014c-8.107 0-14.703 6.596-14.703 14.703v24.491h-61.014c-8.107 0-14.703 6.596-14.703 14.704v24.491h-61.014c-8.106 0-14.702 6.596-14.702 14.703v37.086h-2.774c-4.143 0-7.5 3.358-7.5 7.5s3.357 7.498 7.5 7.498zm169.207-130.176h60.717v115.176h-60.717c0-11.295 0-103.466 0-115.176zm-75.717 39.193h60.717v75.983h-60.717c0-7.871 0-66.443 0-75.983zm-75.716 39.195h60.716v36.789h-60.716z"/></g></g></svg>