<?xml version="1.0" encoding="iso-8859-1"?>
<!-- Generator: Adobe Illustrator 19.0.0, SVG Export Plug-In . SVG Version: 6.00 Build 0)  -->
<svg version="1.1" id="Capa_1" xmlns="http://www.w3.org/2000/svg" xmlns:xlink="http://www.w3.org/1999/xlink" x="0px" y="0px"
	 viewBox="0 0 512.001 512.001" style="enable-background:new 0 0 512.001 512.001;" xml:space="preserve">
<path style="fill:#F9F5F2;" d="M219.43,425.144h73.143c20.169-0.064,36.507-16.402,36.571-36.571v-45.714H182.859v45.714
	C182.923,408.75,199.261,425.089,219.43,425.144z"/>
<path style="fill:#FDCA6E;" d="M109.716,443.429l-9.143,54.857H411.43l-9.143-54.857l9.143,54.857h91.429l-14.994-70.217
	c-7.323-33.691-37.111-57.737-71.589-57.783h-87.131v18.286c-0.064,20.169-16.402,36.507-36.571,36.571H219.43
	c-20.169-0.064-36.507-16.402-36.571-36.571v-18.286H95.727c-34.478,0.046-64.265,24.091-71.589,57.783L9.144,498.286h91.429
	L109.716,443.429z"/>
<g>
	<path style="fill:#F9F5F2;" d="M365.716,306.286V183.224c-28.48-9.006-50.789-31.314-59.794-59.794h-99.84
		c-8.987,28.489-31.305,50.807-59.794,59.794v123.063c0,20.197,16.375,36.571,36.571,36.571h146.286
		C349.341,342.858,365.716,326.483,365.716,306.286z M201.144,205.715c-5.047,0-9.143-4.096-9.143-9.143
		c0-5.047,4.096-9.143,9.143-9.143s9.143,4.096,9.143,9.143C210.287,201.619,206.2,205.715,201.144,205.715z M310.859,205.715
		c-5.047,0-9.143-4.096-9.143-9.143c0-5.047,4.096-9.143,9.143-9.143s9.143,4.096,9.143,9.143
		C320.001,201.619,315.915,205.715,310.859,205.715z"/>
	<path style="fill:#F9F5F2;" d="M109.716,224.001c0,20.197,16.375,36.571,36.571,36.571v-73.143
		C126.091,187.429,109.716,203.804,109.716,224.001z"/>
	<path style="fill:#F9F5F2;" d="M402.287,224.001c0-20.197-16.375-36.571-36.571-36.571v73.143
		C385.912,260.572,402.287,244.197,402.287,224.001z"/>
</g>
<path style="fill:#787D82;" d="M206.081,123.429h99.84c9.006,28.48,31.314,50.789,59.794,59.794v-59.794
	c0.082-60.517-48.905-109.632-109.422-109.714c-0.101,0-0.192,0-0.293,0c-50.03,0-93.733,33.838-106.24,82.286
	c-2.322,8.96-3.493,18.176-3.474,27.429v59.794C174.776,174.236,197.094,151.918,206.081,123.429z"/>
<g>
	<circle style="fill:#F9F5F2;" cx="310.859" cy="196.572" r="9.143"/>
	<circle style="fill:#F9F5F2;" cx="201.144" cy="196.572" r="9.143"/>
</g>
<g>
	<path style="fill:#231F20;" d="M496.797,426.131c-8.366-37.806-41.801-64.786-80.521-64.987h-77.989v-10.057
		c21.266-4.37,36.544-23.086,36.571-44.8v-37.486c24.741-5.029,40.731-29.157,35.703-53.897
		c-3.648-17.984-17.71-32.046-35.703-35.703v-55.771c0-65.646-53.211-118.857-118.857-118.857S137.144,57.784,137.144,123.429
		v55.771c-24.741,5.029-40.731,29.157-35.703,53.897c3.657,17.993,17.71,32.046,35.703,35.703v37.486
		c0.027,21.714,15.305,40.43,36.571,44.8v10.057H95.727c-38.729,0.201-72.165,27.2-80.53,65.015L0.203,496.376
		c-1.051,4.937,2.094,9.792,7.031,10.853c0.631,0.137,1.271,0.201,1.911,0.201h493.714c5.047,0,9.143-4.096,9.143-9.143
		c0-0.64-0.064-1.28-0.201-1.911L496.797,426.131z M192.001,352.001h128v36.571c0,15.15-12.279,27.429-27.429,27.429H219.43
		c-15.15,0-27.429-12.279-27.429-27.429V352.001z M393.144,224.001c-0.018,11.621-7.333,21.979-18.286,25.865v-51.73
		C385.812,202.03,393.135,212.38,393.144,224.001z M158.621,98.277C172.5,44.499,227.348,12.152,281.135,26.03
		c44.416,11.465,75.447,51.529,75.438,97.399v46.135c-1.481-0.731-2.944-1.49-4.37-2.313c-0.75-0.43-1.527-0.814-2.258-1.271
		c-2.606-1.6-5.111-3.346-7.525-5.221c-0.329-0.256-0.622-0.558-0.914-0.823c-2.039-1.646-4.005-3.383-5.87-5.211
		c-0.722-0.704-1.39-1.463-2.075-2.185c-1.408-1.49-2.743-3.008-4.078-4.571c-0.713-0.914-1.39-1.774-2.066-2.67
		c-1.179-1.573-2.304-3.191-3.374-4.855c-0.603-0.914-1.216-1.893-1.829-2.862c-1.061-1.829-2.021-3.657-2.944-5.577
		c-0.43-0.914-0.914-1.728-1.298-2.624c-1.28-2.825-2.386-5.733-3.328-8.686c-1.198-3.813-4.727-6.4-8.722-6.4h-99.84
		c-3.995,0-7.525,2.587-8.722,6.4c-3.995,12.635-10.962,24.119-20.325,33.49c-2.853,2.816-5.906,5.413-9.143,7.781
		c-0.914,0.686-1.883,1.307-2.834,1.957c-2.496,1.701-5.093,3.264-7.762,4.681c-0.613,0.32-1.225,0.658-1.829,0.969v-46.144
		C155.448,114.945,156.509,106.497,158.621,98.277z M118.859,224.001c0.018-11.621,7.333-21.979,18.286-25.865v51.73
		C126.2,245.98,118.877,235.621,118.859,224.001z M155.43,306.286V189.688c0.914-0.366,1.829-0.85,2.743-1.243
		c1.381-0.585,2.743-1.189,4.069-1.829c2.139-1.024,4.224-2.139,6.281-3.31c1.243-0.713,2.478-1.399,3.657-2.158
		c2.167-1.362,4.242-2.843,6.309-4.361c0.987-0.731,2.002-1.399,2.962-2.167c2.962-2.341,5.797-4.846,8.475-7.506
		c9.838-9.838,17.536-21.595,22.619-34.542h86.912c1.344,3.383,2.871,6.702,4.571,9.92c0.558,1.061,1.207,2.039,1.829,3.072
		c1.207,2.112,2.405,4.224,3.749,6.235c0.786,1.17,1.664,2.277,2.505,3.41c1.289,1.765,2.569,3.529,3.968,5.202
		c0.914,1.152,2.002,2.231,3.017,3.337c1.408,1.545,2.825,3.081,4.325,4.571c1.115,1.07,2.277,2.075,3.438,3.099
		c1.536,1.353,3.09,2.679,4.709,3.941c1.243,0.969,2.514,1.874,3.803,2.789c1.655,1.17,3.337,2.295,5.074,3.365
		c1.353,0.841,2.734,1.646,4.133,2.423c1.765,0.978,3.566,1.893,5.394,2.743c1.472,0.704,2.944,1.381,4.453,2.011
		c0.75,0.32,1.463,0.713,2.222,1.006v116.59c0,15.15-12.279,27.429-27.429,27.429H182.859
		C167.709,333.715,155.43,321.436,155.43,306.286z M419.174,489.144l-7.872-47.214l-18.03,2.999l7.369,44.215h-289.28l7.369-44.215
		l-18.03-2.999l-7.872,47.214H20.445l12.626-59.136c6.519-29.422,32.521-50.414,62.656-50.578h77.989v9.143
		c0.027,25.234,20.48,45.687,45.714,45.714h73.143c25.234-0.027,45.687-20.48,45.714-45.714v-9.143h77.989
		c30.126,0.165,56.128,21.138,62.647,50.551l12.635,59.163H419.174z"/>
	<circle style="fill:#231F20;" cx="310.859" cy="196.572" r="18.286"/>
	<circle style="fill:#231F20;" cx="201.144" cy="196.572" r="18.286"/>
</g>
<g>
</g>
<g>
</g>
<g>
</g>
<g>
</g>
<g>
</g>
<g>
</g>
<g>
</g>
<g>
</g>
<g>
</g>
<g>
</g>
<g>
</g>
<g>
</g>
<g>
</g>
<g>
</g>
<g>
</g>
</svg>
